<svg id="Layer_1" data-name="Layer 1" xmlns="http://www.w3.org/2000/svg" viewBox="0 0 105 65"><defs><style>.cls-1{fill:#ffc627;}</style></defs><title>main-logo</title><path class="cls-1" d="M18.09,16.39v-10H32.82V45.64s0,13-12.37,13c-5.27,0-7.22-1.43-7.22-1.43V48s9.68,3,9.68-4.23c0-4.83,0-27.38,0-27.38Z"/><path class="cls-1" d="M53.32,6.35H51.65a12,12,0,0,0-12,12V25c0,.1,0,.2,0,.3V39.68c0,.1,0,.2,0,.3v6.68a12,12,0,0,0,12,12h1.67a12,12,0,0,0,12-12V18.34A12,12,0,0,0,53.32,6.35Zm1.55,39.88a2.39,2.39,0,0,1-2.39,2.39h0a2.39,2.39,0,0,1-2.39-2.39V18.81a2.39,2.39,0,0,1,2.39-2.39h0a2.39,2.39,0,0,1,2.39,2.39Z"/><polygon class="cls-1" points="72.14 6.35 72.14 58.65 91.77 58.65 91.77 48.56 82.23 48.56 82.23 36.87 87.02 36.87 87.02 27.44 82.25 27.44 82.25 16.38 91.77 16.38 91.77 6.35 72.14 6.35"/></svg>