<?xml version="1.0" encoding="utf-8"?>
<!-- Generator: Adobe Illustrator 23.0.1, SVG Export Plug-In . SVG Version: 6.00 Build 0)  -->
<svg version="1.1" id="Layer_1" xmlns="http://www.w3.org/2000/svg" xmlns:xlink="http://www.w3.org/1999/xlink" x="0px" y="0px"
	 viewBox="0 0 105 65" style="enable-background:new 0 0 105 65;" xml:space="preserve">
<style type="text/css">
	.st0{fill:#FFC729;}
	.st1{fill:#FCFDFF;}
</style>
<rect width="105" height="65"/>
<g>
	<path class="st0" d="M43.4,37.8v-6.1h8.9v23.9c0,0,0,7.9-7.5,7.9c-3.2,0-4.4-0.9-4.4-0.9V57c0,0,5.9,1.8,5.9-2.6
		c0-2.9,0-16.6,0-16.6L43.4,37.8z"/>
	<path class="st0" d="M64.8,31.7h-1c-4,0-7.3,3.3-7.3,7.3v17.2c0,4,3.3,7.3,7.3,7.3h1c4,0,7.3-3.3,7.3-7.3V39
		C72,34.9,68.8,31.7,64.8,31.7z M65.9,55.7c0,0.9-0.7,1.6-1.6,1.6l0,0c-0.9,0-1.6-0.7-1.6-1.6V39.4c0-0.9,0.7-1.6,1.6-1.6l0,0
		c0.9,0,1.6,0.7,1.6,1.6V55.7z"/>
	<polygon class="st0" points="76.2,31.7 76.2,63.4 88.1,63.4 88.1,57.3 82.3,57.3 82.3,50.2 85.2,50.2 85.2,44.5 82.3,44.5 
		82.3,37.8 88.1,37.8 88.1,31.7 	"/>
</g>
<g>
	<path class="st1" d="M6.7,26.6c-4.4,0-6.5-2.5-6.5-8.2h4.5c-0.1,2.6,0.4,3.7,1.9,3.7c1.1,0,1.8-0.7,1.8-2.4c0-2.4-0.9-3.3-3.1-4.5
		c-3.3-1.7-5.2-4.1-5.2-8.4c0-4.1,2.4-6.7,6.3-6.7c3.7,0,6.5,2.4,6.2,8.2H8c0-2.9-0.5-3.7-1.7-3.7c-1.1,0-1.4,0.8-1.4,2.3
		c0,1.3,0.5,2.7,3.3,4.2c3.7,2,4.9,3.9,4.9,7.9C13.1,24.3,11,26.6,6.7,26.6z"/>
	<path class="st1" d="M27.9,11.5c-0.1,2.3-2.4,4.1-5,4.2c-1.2,0-2.9,0-2.9,0v10.5h-5V0.6h7.8c2.9,0,4.8,1.6,5,4.3c0.1,0.6,0,2,0,3.2
		C27.9,9.5,27.9,11,27.9,11.5z M22.9,6.1c-0.3-0.6-0.8-0.9-1.5-0.9H20V11c0,0,0.9,0.1,1.4,0.1c0.8,0,1.5-0.4,1.6-1.3
		c0-0.3,0.1-1.2,0.1-1.7C23.1,7.5,23.1,6.6,22.9,6.1z"/>
	<path class="st1" d="M42.3,19.5c-0.1,4.1-1.5,7.1-6.5,7.1c-4.9,0-6.4-3-6.4-7.1c0-1.1,0-3.7,0-6.1c0-2.4,0-5.2,0-6.1
		c0-3.9,1.5-7.1,6.5-7.1c4.9,0,6.4,3,6.4,7.1c0,2.3,0,3.6,0,6.1C42.4,15,42.4,17.1,42.3,19.5z M37.2,7c0-1.3-0.2-2.1-1.3-2.1
		c-1,0-1.3,0.9-1.3,2.1c0,1-0.1,4.2-0.1,6.4c0,1.1,0,5.3,0.1,6.3c0.1,1.2,0.3,2.1,1.3,2.1c1.1,0,1.3-0.9,1.3-2.1
		c0-1,0.1-4.7,0.1-6.4C37.3,11.7,37.2,7.9,37.2,7z"/>
	<path class="st1" d="M53.4,26.2c-0.3-0.4-0.4-1.1-0.4-2.8c0-2.1,0-4.9,0-5.7c0-1.5-0.5-2.4-2.1-2.4h-1.2v10.8h-5V0.6h7.9
		c4.4,0,5.6,2.6,5.6,6c0,3.1-0.4,5.3-3.3,6v0.1c2.2,0.6,3.1,2.4,3.1,4.9c0,2.5,0,4.3,0,6.9c0,0.7,0.1,1.6,0.3,1.7v0.1H53.4z
		 M53.2,7.3c-0.1-1.4-0.5-2-2.1-2h-1.3c0,0,0,4.8,0,5.5c0.4,0,0.9,0,1.4-0.1c1.3-0.1,1.9-0.6,2-2.1c0-0.2,0-0.5,0-0.7
		S53.2,7.5,53.2,7.3z"/>
	<path class="st1" d="M69.4,5.4v20.9h-5V5.4h-4.7V0.6H74v4.8H69.4z"/>
	<path class="st1" d="M81.6,26.6c-4.4,0-6.5-2.5-6.5-8.2h4.5c-0.1,2.6,0.4,3.7,1.9,3.7c1.1,0,1.8-0.7,1.8-2.4c0-2.4-0.9-3.3-3.1-4.5
		c-3.3-1.7-5.2-4.1-5.2-8.4c0-4.1,2.4-6.7,6.3-6.7c3.7,0,6.5,2.4,6.2,8.2H83c0-2.9-0.5-3.7-1.7-3.7c-1.1,0-1.4,0.8-1.4,2.3
		c0,1.3,0.5,2.7,3.3,4.2c3.7,2,4.9,3.9,4.9,7.9C88.1,24.3,85.9,26.6,81.6,26.6z"/>
</g>
</svg>
